<mxfile host="app.diagrams.net" agent="Mozilla/5.0 (Windows NT 10.0; Win64; x64) AppleWebKit/537.36 (KHTML, like Gecko) Chrome/129.0.0.0 Safari/537.36 Edg/129.0.0.0" version="24.8.3">
  <diagram name="Page-1" id="DbEj0wb6gYlWf3ykxf6L">
    <mxGraphModel dx="1050" dy="586" grid="1" gridSize="10" guides="1" tooltips="1" connect="1" arrows="1" fold="1" page="1" pageScale="1" pageWidth="850" pageHeight="1100" math="0" shadow="0">
      <root>
        <mxCell id="0" />
        <mxCell id="1" parent="0" />
        <mxCell id="xgR3D-TqDp1HYADg3DbU-4" value="" style="edgeStyle=orthogonalEdgeStyle;html=1;verticalAlign=bottom;endArrow=open;endSize=8;strokeColor=#ff0000;rounded=0;" edge="1" parent="1">
          <mxGeometry relative="1" as="geometry">
            <mxPoint x="420" y="360" as="targetPoint" />
            <mxPoint x="420" y="300" as="sourcePoint" />
          </mxGeometry>
        </mxCell>
        <mxCell id="xgR3D-TqDp1HYADg3DbU-5" value="" style="verticalLabelPosition=bottom;html=1;verticalAlign=top;strokeWidth=1;align=center;outlineConnect=0;dashed=0;outlineConnect=0;shape=mxgraph.aws3d.ami2;aspect=fixed;fillColor=#FF9900;strokeColor=#ffffff;" vertex="1" parent="1">
          <mxGeometry x="30" y="90" width="266.4" height="180" as="geometry" />
        </mxCell>
        <mxCell id="xgR3D-TqDp1HYADg3DbU-6" value="" style="verticalLabelPosition=bottom;html=1;verticalAlign=top;strokeWidth=1;align=center;outlineConnect=0;dashed=0;outlineConnect=0;shape=mxgraph.aws3d.spot2;fillColor=#F4B934;strokeColor=none;aspect=fixed;" vertex="1" parent="1">
          <mxGeometry x="400" y="90" width="217" height="126" as="geometry" />
        </mxCell>
        <mxCell id="xgR3D-TqDp1HYADg3DbU-7" value="" style="verticalLabelPosition=bottom;html=1;verticalAlign=top;strokeWidth=1;align=center;outlineConnect=0;dashed=0;outlineConnect=0;shape=mxgraph.aws3d.vpcGateway;fillColor=#ECECEC;strokeColor=#5E5E5E;aspect=fixed;" vertex="1" parent="1">
          <mxGeometry x="260" y="258.28" width="180" height="158.56" as="geometry" />
        </mxCell>
        <mxCell id="xgR3D-TqDp1HYADg3DbU-8" value="" style="verticalLabelPosition=bottom;html=1;verticalAlign=top;strokeWidth=1;align=center;outlineConnect=0;dashed=0;outlineConnect=0;shape=mxgraph.aws3d.oracleDataCenter;fillColor=#ffffff;strokeColor=#5E5E5E;aspect=fixed;" vertex="1" parent="1">
          <mxGeometry x="520" y="258.28" width="123" height="142" as="geometry" />
        </mxCell>
        <mxCell id="xgR3D-TqDp1HYADg3DbU-10" value="" style="outlineConnect=0;dashed=0;verticalLabelPosition=bottom;verticalAlign=top;align=center;html=1;shape=mxgraph.aws3.elasticsearch_service;fillColor=#F58534;gradientColor=none;" vertex="1" parent="1">
          <mxGeometry x="390" y="260" width="67.5" height="81" as="geometry" />
        </mxCell>
      </root>
    </mxGraphModel>
  </diagram>
</mxfile>
